<svg width="200" height="50" xmlns="http://www.w3.org/2000/svg">
  <rect width="100%" height="100%" fill="#e5e5e5"/>
  <g transform="translate(25, 5)">
    <path d="M5 45 L 25 5 L 45 45 L 25 25 Z" fill="#2e7d32" stroke="#fdd835" stroke-width="2.5"/>
    <path d="M20 25 L 30 25 L 30 45 L 20 45 Z" fill="#2e7d25"/>
    <circle cx="25" cy="15" r="2.5" fill="#fdd835"/>
    <rect x="10" y="30" width="5" height="5" fill="#fdd835"/>
    <path d="M10 40 A 2.5 2.5 0 0 1 15 40" fill="none" stroke="#fdd835" stroke-width="1"/>
    <rect x="35" y="30" width="5" height="5" fill="#4caf50"/>
    <path d="M35 40 A 2.5 2.5 0 0 0 40 40" fill="none" stroke="#4caf50" stroke-width="1"/>
    <!-- Semantic Web Icon replacing 'Webizen' -->
    <g transform="translate(50, 20)">
      <circle cx="10" cy="10" r="7.5" fill="#2e7d32" stroke="#fdd835" stroke-width="1"/>
      <circle cx="25" cy="5" r="5" fill="#2e7d32" stroke="#fdd835" stroke-width="1"/>
      <circle cx="25" cy="20" r="5" fill="#2e7d32" stroke="#fdd835" stroke-width="1"/>
      <line x1="10" y1="10" x2="25" y2="5" stroke="#fdd835" stroke-width="1"/>
      <line x1="10" y1="10" x2="25" y2="20" stroke="#fdd835" stroke-width="1"/>
      <line x1="25" y1="5" x2="25" y2="20" stroke="#fdd835" stroke-width="1"/>
    </g>
    <text x="85" y="35" font-size="20" fill="#2e7d32">Connect</text>
  </g>
</svg>