<svg width="400" height="100" xmlns="http://www.w3.org/2000/svg">
  <rect width="100%" height="100%" fill="#e5e5e5"/>
  <g transform="translate(50, 10)">
    <path d="M10 90 L 50 10 L 90 90 L 50 50 Z" fill="#2e7d32" stroke="#fdd835" stroke-width="5"/>
    <path d="M40 50 L 60 50 L 60 90 L 40 90 Z" fill="#2e7d32"/>
    <circle cx="50" cy="30" r="5" fill="#fdd835"/>
    <rect x="20" y="60" width="10" height="10" fill="#fdd835"/>
    <path d="M20 80 A 5 5 0 0 1 30 80" fill="none" stroke="#fdd835" stroke-width="2"/>
    <rect x="70" y="60" width="10" height="10" fill="#4caf50"/>
    <path d="M70 80 A 5 5 0 0 0 80 80" fill="none" stroke="#4caf50" stroke-width="2"/>
    <!-- Semantic Web Icon replacing 'Webizen' -->
    <g transform="translate(100, 40)">
      <circle cx="20" cy="20" r="15" fill="#2e7d32" stroke="#fdd835" stroke-width="2"/>
      <circle cx="50" cy="10" r="10" fill="#2e7d32" stroke="#fdd835" stroke-width="2"/>
      <circle cx="50" cy="40" r="10" fill="#2e7d32" stroke="#fdd835" stroke-width="2"/>
      <line x1="20" y1="20" x2="50" y2="10" stroke="#fdd835" stroke-width="2"/>
      <line x1="20" y1="20" x2="50" y2="40" stroke="#fdd835" stroke-width="2"/>
      <line x1="50" y1="10" x2="50" y2="40" stroke="#fdd835" stroke-width="2"/>
    </g>
    <text x="170" y="70" font-size="40" fill="#2e7d32">Connect</text>
  </g>
</svg>